<?xml version="1.0" standalone="no"?>
<!DOCTYPE svg PUBLIC "-//W3C//DTD SVG 20010904//EN"
 "http://www.w3.org/TR/2001/REC-SVG-20010904/DTD/svg10.dtd">
<svg version="1.0" xmlns="http://www.w3.org/2000/svg"
 width="70" height="50" viewBox="0 0 1280.000000 720.000000"
 preserveAspectRatio="xMidYMid meet">

<g transform="translate(0.000000,720.000000) scale(0.100000,-0.100000)"
fill="#000000" stroke="none">
<path d="M3280 7185 c0 -9 -12 -20 -27 -26 -38 -14 -103 -83 -103 -108 0 -16
-6 -21 -25 -21 -18 0 -25 -5 -25 -20 0 -11 -4 -20 -10 -20 -5 0 -10 -13 -10
-30 0 -16 -4 -31 -10 -31 -20 -3 -25 -4 -37 -12 -7 -5 -13 -17 -13 -27 0 -11
-8 -27 -19 -37 -15 -15 -19 -39 -24 -152 -6 -117 -9 -135 -27 -151 -17 -15
-20 -29 -20 -109 0 -70 4 -96 15 -108 9 -8 19 -28 22 -44 3 -16 9 -29 13 -29
4 0 15 -18 25 -40 10 -22 22 -40 27 -40 4 0 8 -9 8 -20 0 -13 7 -20 20 -20 11
0 20 -4 20 -10 0 -5 9 -10 20 -10 11 0 20 -4 20 -10 0 -5 9 -10 20 -10 13 0
20 7 20 20 0 17 7 20 38 20 29 0 44 6 60 25 25 28 28 51 10 58 -8 2 -9 8 -4
13 5 5 11 4 13 -3 7 -21 23 -15 23 9 l0 21 20 -23 c11 -13 20 -27 20 -32 0 -4
14 -8 30 -8 17 0 30 -4 30 -10 0 -6 40 -10 99 -10 70 0 101 -4 104 -12 4 -10
8 -10 14 -2 4 6 32 15 61 19 28 4 50 10 48 13 -2 4 7 8 20 9 115 11 191 -3
228 -40 12 -13 36 -24 56 -26 19 -1 36 -7 38 -12 2 -4 18 -11 36 -14 24 -5 39
-18 61 -53 27 -42 30 -57 34 -142 1 -52 6 -97 10 -100 9 -7 61 -117 61 -130 0
-6 11 -26 25 -44 14 -18 25 -38 25 -45 0 -6 13 -46 29 -89 15 -42 43 -124 61
-182 18 -58 40 -116 48 -130 24 -37 54 -131 47 -147 -3 -9 0 -33 5 -54 8 -29
16 -39 30 -39 11 0 20 -4 20 -8 0 -12 -85 -32 -138 -32 -62 0 -373 -26 -482
-41 -173 -23 -374 -62 -485 -94 -33 -9 -78 -21 -100 -25 -22 -4 -57 -15 -79
-24 -62 -28 -177 -151 -243 -261 -26 -44 -93 -183 -93 -194 0 -6 -4 -19 -9
-29 -5 -9 -19 -51 -31 -92 -11 -41 -31 -106 -44 -145 -26 -81 -33 -103 -81
-280 -43 -156 -67 -223 -101 -281 l-26 -44 27 -46 c37 -62 242 -324 310 -395
l54 -56 -25 -34 c-39 -51 -73 -123 -79 -166 -8 -49 12 -105 64 -182 46 -68 49
-88 21 -146 -27 -57 -54 -79 -127 -105 -55 -20 -74 -22 -155 -16 -51 4 -104 8
-118 10 -14 3 -28 5 -31 5 -4 1 -22 15 -40 32 -67 60 -135 107 -215 148 -87
44 -94 47 -94 30 0 -11 39 -48 52 -49 26 -1 190 -112 240 -162 66 -66 119 -91
219 -103 108 -13 246 33 318 107 59 59 76 101 76 183 0 64 -4 76 -39 132 -30
49 -36 68 -31 91 6 30 61 112 73 112 4 -1 34 -26 67 -56 33 -30 89 -76 125
-101 56 -40 95 -69 136 -102 5 -4 29 -19 52 -32 47 -27 50 -34 22 -49 -33 -18
-291 -203 -515 -370 -259 -193 -340 -250 -353 -250 -6 0 -12 -3 -14 -7 -1 -5
-49 -39 -106 -77 -56 -37 -108 -73 -115 -80 -7 -6 -32 -27 -56 -46 -24 -18
-49 -48 -56 -64 -7 -17 -29 -46 -49 -64 -20 -18 -36 -39 -36 -46 0 -7 -25 -35
-55 -61 -48 -40 -59 -46 -86 -40 -42 9 -162 75 -211 115 -54 45 -140 154 -167
213 -29 64 -44 188 -39 312 6 136 19 159 102 175 127 23 166 39 186 73 28 45
26 93 -4 112 -20 14 -39 14 -142 5 -222 -20 -350 -67 -447 -163 -96 -97 -154
-201 -198 -357 -21 -76 -23 -104 -22 -265 1 -131 6 -198 17 -245 10 -36 20
-78 23 -95 3 -16 9 -34 13 -40 4 -5 15 -35 24 -65 9 -30 21 -65 26 -77 15 -34
24 -58 66 -163 21 -52 41 -99 46 -105 4 -5 8 -16 8 -25 0 -23 69 -97 103 -109
22 -9 27 -8 27 5 0 16 -3 20 -50 73 -17 19 -28 41 -25 48 3 8 5 17 5 19 0 2 7
4 15 4 8 0 15 5 15 10 0 19 17 10 64 -35 53 -49 61 -53 70 -29 6 16 -22 74
-35 74 -11 0 -39 60 -39 81 0 28 69 59 129 59 58 0 157 -42 166 -70 5 -17 -13
-71 -54 -164 -20 -44 -25 -60 -67 -201 -40 -139 -52 -183 -73 -275 -6 -25 -17
-74 -25 -110 -8 -36 -18 -82 -22 -102 l-6 -38 1900 0 1899 0 -5 25 c-2 14 -8
28 -13 31 -5 3 -9 15 -9 28 0 12 -4 26 -10 32 -5 5 -10 85 -10 177 l-2 168 64
61 c34 33 75 67 90 76 16 9 28 20 28 24 0 4 7 8 16 8 8 0 22 7 30 15 9 8 20
15 25 15 17 0 9 -19 -12 -30 -23 -13 -42 -28 -102 -83 -23 -20 -45 -37 -49
-37 -5 0 -8 -5 -8 -11 0 -6 -11 -20 -25 -31 -23 -18 -25 -26 -25 -99 0 -54 4
-85 13 -94 10 -9 12 -28 7 -67 -8 -59 -6 -68 16 -68 11 0 13 6 9 20 -5 14 -2
20 9 20 9 0 16 5 16 10 0 6 23 10 50 10 43 0 50 3 50 20 0 13 7 20 19 20 11 0
22 6 25 13 5 9 7 9 12 0 4 -9 31 -13 85 -13 72 0 79 2 79 20 0 18 7 20 80 20
73 0 80 2 80 20 0 18 7 20 55 20 30 0 55 -3 55 -7 0 -9 -48 -33 -66 -33 -6 0
-14 -9 -17 -20 -3 -12 -14 -20 -27 -20 -15 0 -20 -5 -17 -14 4 -9 -2 -17 -14
-21 -10 -4 -19 -13 -19 -22 0 -17 -49 -82 -109 -145 l-35 -38 192 0 192 0 67
33 c38 17 74 38 82 45 16 15 37 10 33 -9 -2 -7 -6 -25 -9 -41 l-5 -28 70 0 71
0 3 82 3 82 185 94 c530 270 996 502 1008 502 26 0 -12 -26 -82 -57 -38 -17
-81 -42 -98 -56 -25 -23 -98 -53 -98 -42 0 6 -46 -35 -92 -83 -25 -25 -51 -42
-65 -42 -16 0 -23 -6 -23 -20 0 -15 -7 -20 -25 -20 -25 0 -31 -13 -19 -44 7
-18 64 -23 64 -6 0 6 63 10 170 10 107 0 170 -4 170 -10 0 -6 33 -10 80 -10
47 0 80 -4 80 -10 0 -5 9 -10 20 -10 13 0 20 7 20 20 0 13 7 20 20 20 13 0 20
-7 20 -20 0 -13 7 -20 20 -20 13 0 20 7 20 20 0 18 7 20 60 20 l60 0 0 40 c0
33 3 40 20 40 13 0 20 7 20 20 0 28 19 25 30 -6 14 -35 13 -37 -15 -70 -14
-16 -25 -39 -25 -50 0 -12 -7 -27 -16 -35 -22 -18 -57 -89 -62 -124 -2 -16 -7
-32 -12 -35 -4 -3 -11 -21 -15 -40 -4 -19 -17 -48 -30 -65 -12 -16 -25 -40
-29 -52 l-7 -23 1924 0 1925 0 -5 22 c-7 31 -41 158 -65 243 -30 106 -66 247
-99 380 -80 328 -122 446 -217 610 -72 124 -268 340 -376 414 -12 8 -23 17
-26 20 -3 4 -21 18 -41 33 -19 14 -71 61 -115 104 -71 69 -399 339 -440 362
-22 13 -11 28 39 54 23 11 61 34 83 49 23 16 66 41 96 56 29 16 112 67 185
116 72 48 134 87 137 87 3 0 27 15 53 34 27 18 63 41 82 51 19 9 39 21 45 26
30 25 208 139 217 139 5 0 9 4 9 8 0 12 56 42 77 42 17 -1 17 -2 -2 -16 -105
-79 -156 -134 -124 -134 5 0 7 -5 4 -10 -3 -6 1 -10 9 -10 9 0 16 -4 16 -10 0
-5 -4 -10 -10 -10 -5 0 -10 -5 -10 -10 0 -6 3 -9 8 -9 30 5 40 -4 46 -41 5
-33 10 -40 29 -40 20 0 24 -8 35 -58 7 -31 16 -76 19 -99 3 -26 10 -43 18 -43
8 0 16 -17 20 -41 4 -22 18 -51 31 -64 13 -13 24 -31 24 -40 0 -8 4 -15 9 -15
5 0 13 -9 16 -20 3 -11 13 -20 21 -20 9 0 14 -11 14 -30 0 -28 2 -30 40 -30
44 0 120 20 120 32 0 5 11 8 25 8 14 0 25 5 25 10 0 6 7 10 15 10 20 0 35 61
35 142 0 90 13 118 57 118 23 0 33 -5 33 -16 0 -18 23 -44 39 -44 6 0 11 -4
11 -10 0 -5 6 -10 13 -10 7 0 19 -9 27 -20 8 -11 20 -20 27 -20 7 0 13 -9 13
-20 0 -13 7 -20 19 -20 11 0 23 -9 26 -20 4 -13 15 -20 30 -20 15 0 26 -7 30
-20 4 -12 22 -24 46 -31 22 -7 52 -25 68 -40 21 -20 32 -24 40 -16 14 14 14
160 1 357 -11 167 -19 332 -25 510 -2 69 -9 150 -14 180 -5 30 -15 82 -20 115
-6 33 -15 61 -21 63 -5 2 -10 12 -10 23 0 10 -5 19 -11 19 -5 0 -7 5 -4 10 4
6 0 22 -9 35 -13 20 -22 23 -51 20 l-36 -5 38 33 c21 17 40 34 43 37 10 10
106 86 145 115 22 16 49 38 60 48 11 10 63 51 115 90 87 67 225 174 363 283
33 27 57 54 57 65 0 24 -11 24 -36 2 -27 -26 -73 -48 -81 -40 -3 4 1 7 10 7 8
0 17 3 19 8 2 4 22 22 46 40 l42 34 0 489 c0 269 -2 489 -5 489 -8 0 -145
-144 -145 -152 0 -13 13 -9 48 12 18 11 37 20 43 20 23 0 -51 -89 -112 -135
-54 -41 -296 -220 -311 -230 -67 -43 -97 -66 -103 -75 -3 -5 -11 -10 -17 -10
-12 0 2 14 62 64 111 92 243 216 236 223 -3 3 -52 -26 -110 -65 -105 -70 -146
-82 -146 -44 0 12 -4 11 -22 -6 -20 -18 -25 -19 -42 -6 -26 19 -27 18 -64 -13
-47 -38 -171 -123 -181 -123 -4 0 -16 -9 -26 -20 -10 -11 -22 -20 -28 -20 -5
0 -23 -10 -40 -22 -52 -37 -95 -58 -122 -58 -25 0 -14 11 169 175 77 68 48 71
-51 4 -43 -29 -100 -67 -128 -85 -27 -18 -55 -38 -62 -44 -7 -5 -24 -15 -38
-22 -14 -6 -25 -15 -25 -20 0 -4 -7 -8 -15 -8 -8 0 -15 -4 -15 -10 0 -5 -7
-10 -15 -10 -22 0 -8 24 31 52 17 13 55 44 85 70 30 26 67 59 84 72 66 57 10
30 -125 -59 -79 -52 -150 -95 -157 -95 -7 0 -13 -4 -13 -10 0 -5 -6 -10 -12
-10 -15 0 16 30 117 114 78 65 120 106 108 106 -4 0 -19 -9 -33 -20 -14 -11
-28 -20 -32 -20 -4 0 -38 -20 -75 -44 -76 -49 -141 -86 -150 -86 -11 0 22 34
95 96 40 34 82 74 94 89 l21 27 -54 -27 c-29 -15 -64 -36 -79 -46 -23 -17 -90
-43 -90 -34 0 2 6 10 13 17 22 21 75 139 83 183 4 22 13 49 20 60 7 11 18 43
25 70 6 28 16 54 20 60 5 5 9 19 9 32 0 13 5 23 10 23 6 0 8 11 6 24 -2 14 5
37 17 56 12 19 27 41 32 50 6 9 42 43 80 75 39 32 72 61 75 64 6 7 43 29 83
49 16 8 31 20 34 28 3 8 11 14 18 14 7 0 36 16 64 35 29 19 67 37 86 41 19 3
35 10 35 15 0 5 3 8 8 7 4 -1 23 3 43 9 24 7 54 8 83 2 41 -7 52 -5 95 19 27
15 63 39 80 55 17 15 34 27 39 27 4 0 14 9 22 19 7 11 17 18 22 15 4 -3 8 0 8
7 0 7 3 9 6 6 7 -6 -23 -36 -196 -199 -42 -41 -64 -68 -55 -68 9 0 29 9 43 20
15 11 65 49 112 83 47 35 110 83 141 107 190 153 186 144 -29 -66 -179 -174
-236 -238 -181 -203 13 8 41 26 63 39 37 22 38 22 27 2 -6 -11 -11 -23 -11
-26 0 -10 77 41 159 105 42 33 118 92 169 131 l92 72 0 753 0 753 -227 0 -228
-1 -35 -46 c-19 -26 -40 -51 -45 -57 -6 -6 -44 -51 -85 -101 -41 -49 -77 -92
-80 -95 -26 -26 -81 -102 -77 -107 7 -7 82 68 167 167 68 78 92 101 99 94 6
-6 -15 -46 -66 -126 -24 -36 -43 -69 -43 -73 0 -3 -16 -31 -35 -61 -19 -30
-35 -57 -35 -60 0 -2 -5 -10 -10 -17 -11 -12 -105 -167 -136 -222 -40 -72
-235 -369 -301 -459 -40 -54 -73 -102 -73 -107 0 -5 -4 -9 -10 -9 -16 0 -12
36 6 50 24 20 46 82 34 94 -13 13 -13 29 -1 21 5 -3 12 -1 16 5 3 5 -1 10 -9
10 -8 0 -18 10 -22 22 -7 22 -15 34 -46 69 -10 10 -18 26 -18 34 0 8 -5 15
-11 15 -5 0 -8 4 -5 9 3 5 -6 17 -19 27 -14 10 -25 25 -25 32 0 8 -13 27 -30
44 -16 16 -30 34 -30 39 0 5 -4 9 -10 9 -5 0 -10 9 -10 20 0 11 -4 20 -10 20
-5 0 -10 9 -10 20 0 11 -5 20 -11 20 -8 0 -10 14 -6 40 4 33 0 46 -24 76 -16
20 -29 47 -29 60 0 13 -13 38 -28 56 -26 31 -62 121 -62 156 0 34 -57 182 -71
182 -9 0 -29 81 -29 119 l0 31 -1264 0 c-1002 0 -1265 -3 -1269 -12 -4 -10 -6
-10 -6 0 -1 9 -460 12 -2260 12 l-2259 0 -6 -22 c-3 -13 -6 -68 -6 -122 0 -55
-3 -97 -6 -93 -7 6 -10 48 -12 160 l-2 77 -69 0 -69 0 -7 -37 c-10 -55 -30
-73 -82 -73 -23 0 -43 4 -43 8 0 5 -22 15 -50 22 -37 10 -50 18 -50 32 0 10
-4 18 -10 18 -5 0 -10 7 -10 15 0 13 -27 15 -180 15 -155 0 -180 -2 -180 -15z
m978 -142 c-1 -76 -3 -109 -5 -73 l-4 65 -20 -25 -21 -25 6 45 c6 48 34 150
41 150 3 0 4 -62 3 -137z m364 39 c-7 -2 -12 -8 -12 -13 0 -13 -37 -49 -44
-42 -3 3 8 19 24 37 17 17 30 36 31 41 0 6 3 3 6 -4 3 -8 1 -17 -5 -19z m4018
-77 c0 -8 -4 -15 -10 -15 -5 0 -10 7 -10 15 0 8 5 15 10 15 6 0 10 -7 10 -15z
m-4109 -28 c-10 -9 -11 -8 -5 6 3 10 9 15 12 12 3 -3 0 -11 -7 -18z m4109 -47
c0 -27 -4 -50 -10 -50 -11 0 -13 42 -4 78 10 35 14 26 14 -28z m-4419 -23 c-8
-8 -11 0 -10 29 1 39 1 39 11 11 7 -21 7 -32 -1 -40z m267 -25 c9 -6 4 -16
-18 -37 -16 -16 -32 -26 -35 -23 -8 7 5 38 16 38 5 0 9 7 9 15 0 17 9 19 28 7z
m-251 -44 c-3 -8 -6 -5 -6 6 -1 11 2 17 5 13 3 -3 4 -12 1 -19z m47 -49 c-2
-4 3 -9 11 -13 26 -10 16 -26 -16 -26 -18 0 -28 4 -24 10 4 6 10 8 14 6 4 -3
6 12 4 32 -2 28 -1 32 6 17 5 -11 7 -23 5 -26z m-160 -6 c14 -14 23 -29 20
-32 -4 -3 -9 0 -11 7 -3 6 -10 12 -16 12 -7 0 -18 9 -25 20 -17 28 1 25 32 -7z
m1383 -150 c-3 -10 -5 -2 -5 17 0 19 2 27 5 18 2 -10 2 -26 0 -35z m-36 -289
c-8 -19 -17 -30 -19 -24 -4 10 23 60 32 60 2 0 -4 -16 -13 -36z m514 -21 c-9
-62 -15 -83 -24 -83 -8 0 3 103 14 119 13 22 16 10 10 -36z m2412 -30 c-3 -10
-5 -4 -5 12 0 17 2 24 5 18 2 -7 2 -21 0 -30z m-14 -42 c2 -10 1 -25 -4 -32
-6 -10 -9 -4 -9 19 0 36 5 42 13 13z m-2876 -53 c-3 -8 -6 -5 -6 6 -1 11 2 17
5 13 3 -3 4 -12 1 -19z m601 -25 c19 -72 19 -78 0 -77 -10 0 -43 1 -73 2 -30
1 -55 6 -55 11 0 9 101 111 110 111 3 0 11 -21 18 -47z m1527 37 c3 -5 -1 -10
-9 -10 -9 0 -16 5 -16 10 0 6 4 10 9 10 6 0 13 -4 16 -10z m727 -32 c-3 -13
-14 -36 -24 -53 -16 -26 -18 -27 -18 -9 0 12 7 27 15 34 8 7 15 21 15 31 0 11
4 19 9 19 5 0 7 -10 3 -22z m-2476 -35 c-5 -12 -9 -13 -21 -3 -11 9 -12 17 -4
33 11 19 12 19 21 3 5 -9 7 -24 4 -33z m1124 -23 c0 -11 -7 -20 -15 -20 -13 0
-13 3 -3 20 7 11 14 20 15 20 2 0 3 -9 3 -20z m-1932 -32 c3 -22 -4 -31 -36
-52 -21 -13 -56 -44 -78 -69 -37 -42 -53 -68 -85 -142 -7 -16 -19 -38 -27 -47
-24 -29 -9 -44 17 -17 l23 24 -7 -81 c-5 -63 -3 -89 9 -118 9 -21 16 -53 16
-70 -1 -27 -5 -22 -37 42 -30 61 -37 89 -44 165 -6 71 -4 97 7 119 8 15 14 33
14 39 0 23 82 150 127 195 34 35 49 45 71 42 21 -2 28 -9 30 -30z m653 -40 c8
-15 5 -18 -20 -18 -23 0 -32 7 -45 35 -24 49 -11 63 26 28 16 -15 34 -36 39
-45z m-186 47 c14 -3 23 -10 20 -15 -4 -7 -13 -6 -26 0 -11 6 -23 9 -27 6 -4
-2 -16 2 -27 11 -22 16 -27 16 60 -2z m2090 4 c-4 -6 -19 -7 -37 -4 -21 5 -35
2 -49 -11 -22 -19 -33 -15 -23 10 5 12 19 16 61 16 35 0 52 -4 48 -11z m-1750
-29 c-14 -15 -13 -16 16 -12 17 2 33 11 36 18 5 15 29 19 35 7 2 -5 26 -17 53
-28 36 -15 50 -26 50 -40 1 -30 16 -48 59 -70 40 -21 96 -80 96 -103 0 -11 -2
-11 -13 0 -8 7 -29 24 -48 38 -19 14 -50 41 -70 60 -20 20 -50 42 -65 50 -16
8 -37 23 -47 34 -28 31 -30 11 -2 -30 29 -42 21 -63 -15 -44 -14 7 -40 10 -66
6 -38 -5 -45 -2 -63 21 -25 31 -26 46 -5 78 9 14 12 25 8 26 -5 0 0 4 11 8 32
13 49 2 30 -19z m1525 21 c0 -6 -4 -13 -10 -16 -5 -3 -10 -21 -10 -39 0 -36
-10 -49 -52 -62 -20 -7 -25 -13 -19 -23 7 -11 19 -12 60 -4 46 9 51 8 51 -7 0
-23 -53 -74 -97 -95 -36 -17 -97 -13 -138 9 -11 6 -21 11 -23 12 -10 4 16 37
39 49 38 20 56 19 64 -4 9 -30 33 -15 27 16 -3 17 -15 30 -33 37 -35 13 -36
18 -4 51 50 55 145 104 145 76z m897 -33 c-3 -7 -5 -2 -5 12 0 14 2 19 5 13 2
-7 2 -19 0 -25z m-687 6 c0 -17 -38 -37 -91 -48 -66 -14 -79 -8 -48 20 13 12
33 17 59 16 21 -2 41 2 45 8 6 10 35 14 35 4z m247 -36 c-3 -7 -5 -2 -5 12 0
14 2 19 5 13 2 -7 2 -19 0 -25z m423 -8 c0 -5 -5 -10 -11 -10 -5 0 -7 5 -4 10
3 6 8 10 11 10 2 0 4 -4 4 -10z m-2436 -92 c7 -33 27 -34 36 -1 5 21 6 21 55
4 36 -12 50 -23 50 -36 0 -43 -119 -72 -172 -42 -13 7 -41 30 -64 52 -34 32
-39 41 -27 49 8 6 38 9 65 8 47 -4 51 -6 57 -34z m2416 -15 c18 -39 24 -70 27
-163 2 -68 0 -121 -6 -130 -15 -22 -18 -13 -25 75 -7 89 -30 180 -49 192 -6 4
-38 6 -69 5 -51 -3 -58 -1 -58 15 0 20 49 44 104 50 16 2 32 5 34 8 9 9 20 -5
42 -52z m-2600 22 c13 -14 28 -25 35 -25 6 0 17 -9 25 -21 22 -30 90 -67 130
-70 71 -4 98 2 141 31 54 37 69 37 119 4 42 -28 53 -54 22 -54 -10 0 -27 -7
-38 -15 -14 -11 -49 -14 -132 -15 -95 0 -126 4 -188 25 -95 32 -146 64 -172
109 -12 20 -26 36 -32 36 -5 0 -10 3 -10 8 0 4 17 8 38 10 30 2 43 -3 62 -23z
m-655 -15 c-8 -16 -15 -37 -15 -48 0 -10 -4 -22 -9 -27 -5 -6 -11 -28 -14 -50
-19 -134 -29 -190 -34 -195 -3 -3 -4 40 -2 95 4 98 4 100 -18 99 -13 0 -23 1
-23 3 0 5 73 118 88 136 8 9 21 17 29 17 11 0 11 -5 -2 -30z m2550 8 c11 -11
-102 -110 -154 -135 -55 -28 -58 -28 -233 -26 -146 2 -182 5 -203 19 -14 9
-25 20 -25 24 0 13 33 21 44 10 16 -16 44 -12 108 17 l59 26 15 -21 c20 -30
114 -48 157 -31 44 17 75 42 111 89 28 37 33 40 73 36 24 -2 46 -6 48 -8z
m-535 -68 c-6 -11 -15 -20 -20 -20 -16 0 -11 18 8 29 24 14 24 14 12 -9z m670
16 c0 -2 -7 -7 -16 -10 -8 -3 -12 -2 -9 4 6 10 25 14 25 6z m-2629 -63 c-1
-26 -6 -52 -13 -58 -8 -7 -9 -5 -4 8 3 10 6 39 6 64 0 26 3 43 7 40 3 -4 5
-28 4 -54z m2524 -33 c-3 -5 -11 -10 -16 -10 -6 0 -7 5 -4 10 3 6 11 10 16 10
6 0 7 -4 4 -10z m-55 -27 c-8 -3 -17 -9 -20 -13 -27 -37 -340 -72 -340 -38 0
7 16 8 43 5 47 -7 217 13 217 25 0 4 15 8 34 8 19 0 38 5 41 10 3 6 14 10 23
9 14 0 14 -2 2 -6z m-2493 -35 c-3 -8 -6 -5 -6 6 -1 11 2 17 5 13 3 -3 4 -12
1 -19z m6403 8 c0 -3 -4 -8 -10 -11 -5 -3 -10 -1 -10 4 0 6 5 11 10 11 6 0 10
-2 10 -4z m-5614 -33 c-10 -10 -19 5 -10 18 6 11 8 11 12 0 2 -7 1 -15 -2 -18z
m1306 15 c-17 -8 -26 -8 -34 0 -9 9 -4 12 23 11 32 0 33 -1 11 -11z m4213
-127 c-8 -17 -20 -31 -25 -31 -15 0 -12 8 12 40 27 37 35 32 13 -9z m-37 -48
c-12 -26 -47 -80 -72 -111 -16 -21 -52 -73 -81 -118 -57 -86 -111 -151 -120
-142 -3 3 10 27 28 54 46 67 66 112 69 159 2 24 8 39 15 38 6 -2 21 9 32 24
12 14 21 22 21 18 0 -11 47 40 60 65 10 18 56 30 48 13z m-6314 -38 c3 -8 1
-15 -4 -15 -6 0 -10 7 -10 15 0 8 2 15 4 15 2 0 6 -7 10 -15z m-77 -27 c-3 -8
-6 -5 -6 6 -1 11 2 17 5 13 3 -3 4 -12 1 -19z m103 -8 c0 -5 -4 -10 -10 -10
-5 0 -10 5 -10 10 0 6 5 10 10 10 6 0 10 -4 10 -10z m-70 -30 c0 -5 -2 -10 -4
-10 -3 0 -8 5 -11 10 -3 6 -1 10 4 10 6 0 11 -4 11 -10z m58 -69 c7 -7 11 -16
8 -18 -7 -7 -36 23 -36 36 0 6 -4 11 -10 11 -5 0 -10 8 -10 17 0 14 4 12 17
-7 9 -14 23 -31 31 -39z m62 50 c0 -5 9 -13 20 -16 11 -3 20 -13 20 -21 0 -12
-7 -10 -29 8 -31 24 -38 38 -21 38 6 0 10 -4 10 -9z m-23 -96 c8 -9 13 -18 11
-21 -3 -2 -13 5 -23 16 -21 23 -11 27 12 5z m150 -7 c-3 -8 -6 -5 -6 6 -1 11
2 17 5 13 3 -3 4 -12 1 -19z m-87 -53 c13 -14 21 -25 18 -25 -2 0 -15 11 -28
25 -13 14 -21 25 -18 25 2 0 15 -11 28 -25z m2917 -51 c-3 -3 -12 -4 -19 -1
-8 3 -5 6 6 6 11 1 17 -2 13 -5z m-147 -88 c0 -2 -11 -6 -25 -8 -13 -3 -22 -1
-19 3 5 9 44 13 44 5z m-150 -166 c0 -5 -4 -10 -10 -10 -5 0 -10 5 -10 10 0 6
5 10 10 10 6 0 10 -4 10 -10z m-1953 -186 c-3 -3 -12 -4 -19 -1 -8 3 -5 6 6 6
11 1 17 -2 13 -5z m1870 -136 c-3 -7 -5 -2 -5 12 0 14 2 19 5 13 2 -7 2 -19 0
-25z m4353 -84 c0 -8 -43 -43 -54 -44 -4 0 2 11 15 25 23 24 39 32 39 19z
m-600 -74 c0 -5 -5 -10 -11 -10 -5 0 -7 5 -4 10 3 6 8 10 11 10 2 0 4 -4 4
-10z m-950 -4 c0 -3 -4 -8 -10 -11 -5 -3 -10 -1 -10 4 0 6 5 11 10 11 6 0 10
-2 10 -4z m-110 -103 c-14 -9 -29 -23 -33 -30 -4 -7 -18 -13 -29 -13 -12 0
-18 -3 -15 -6 4 -4 -3 -16 -16 -26 -12 -11 -31 -27 -42 -36 -11 -10 -38 -31
-60 -47 -22 -17 -45 -34 -51 -40 -6 -5 -27 -21 -47 -35 -20 -14 -37 -28 -37
-32 0 -5 -7 -8 -15 -8 -8 0 -25 -11 -39 -25 -14 -14 -30 -25 -37 -25 -25 0 72
80 123 102 15 7 32 22 39 35 7 13 16 23 21 23 5 0 19 10 31 23 12 12 42 36 67
52 25 17 54 39 65 50 22 22 75 54 90 55 5 0 -2 -8 -15 -17z m58 -58 c-35 -41
-470 -377 -515 -398 -13 -6 -23 -14 -23 -19 0 -4 -5 -8 -10 -8 -6 0 -16 -5
-23 -11 -37 -31 -136 -102 -164 -115 -18 -9 -33 -20 -33 -25 0 -5 -7 -9 -15
-9 -8 0 -15 2 -15 5 0 10 36 47 55 56 44 21 65 36 58 42 -3 4 1 7 11 7 9 0 19
7 22 15 4 8 13 15 21 15 8 0 11 5 8 10 -3 6 2 10 12 10 9 0 26 9 38 20 11 11
115 89 230 172 116 84 243 178 284 210 77 61 99 69 59 23z m-2111 -71 c-3 -3
-12 -4 -19 -1 -8 3 -5 6 6 6 11 1 17 -2 13 -5z m62 -30 c18 -9 30 -18 27 -21
-3 -3 -20 4 -38 16 -39 25 -34 27 11 5z m128 -60 c-3 -3 -12 -4 -19 -1 -8 3
-5 6 6 6 11 1 17 -2 13 -5z m4188 -94 c-3 -5 -12 -10 -18 -10 -7 0 -6 4 3 10
19 12 23 12 15 0z m-2531 -60 c-27 -26 -323 -230 -334 -230 -6 0 -10 -4 -10
-10 0 -5 -4 -10 -8 -10 -9 0 -192 -119 -225 -146 -9 -8 -19 -14 -22 -14 -6 0
-133 -87 -156 -107 -24 -20 -31 -17 -69 37 -19 27 -38 49 -42 50 -5 0 -8 5 -8
11 0 6 -9 25 -21 42 -12 19 -5 14 18 -13 21 -24 52 -60 69 -79 l32 -35 41 28
c23 16 41 33 41 37 0 5 5 9 10 9 6 0 20 9 31 19 12 11 42 30 67 43 25 12 57
33 70 45 14 11 36 27 51 35 14 7 31 16 36 21 6 4 87 58 180 120 94 62 190 127
214 145 46 34 69 35 35 2z m-320 -318 c-5 -4 -38 -27 -73 -52 -34 -25 -97 -70
-140 -100 -43 -30 -100 -71 -127 -91 -27 -19 -55 -34 -62 -31 -14 4 -17 32 -3
32 5 0 79 47 165 105 85 58 158 105 161 105 3 0 22 11 42 25 20 13 39 22 42
19 3 -3 1 -8 -5 -12z m-271 -307 c-50 -47 -58 -51 -68 -35 -3 5 12 21 34 34
22 14 42 30 46 36 3 5 13 10 21 10 8 0 -7 -20 -33 -45z m2292 -35 c-3 -5 -12
-10 -18 -10 -7 0 -6 4 3 10 19 12 23 12 15 0z m-28 -26 c-3 -3 -12 -4 -19 -1
-8 3 -5 6 6 6 11 1 17 -2 13 -5z m-30 -20 c-3 -3 -12 -4 -19 -1 -8 3 -5 6 6 6
11 1 17 -2 13 -5z m-72 -50 c-28 -20 -60 -41 -72 -47 -13 -5 -23 -14 -23 -19
0 -4 -7 -8 -15 -8 -8 0 -15 -4 -15 -10 0 -5 -8 -10 -17 -10 -14 0 -14 3 5 20
12 11 26 20 32 20 5 0 10 5 10 10 0 6 7 10 15 10 8 0 15 4 15 10 0 5 16 17 35
26 19 9 35 20 35 25 0 5 10 9 22 9 19 0 13 -7 -27 -36z m-255 -248 c0 -3 -4
-8 -10 -11 -5 -3 -10 -1 -10 4 0 6 5 11 10 11 6 0 10 -2 10 -4z m-30 -26 c0
-5 -8 -10 -17 -10 -15 0 -16 2 -3 10 19 12 20 12 20 0z m-40 -30 c0 -5 -5 -10
-11 -10 -5 0 -7 5 -4 10 3 6 8 10 11 10 2 0 4 -4 4 -10z m-3210 -265 c10 -13
32 -164 25 -175 -3 -5 -31 -16 -63 -24 -31 -9 -72 -24 -90 -33 -17 -9 -35 -14
-38 -11 -3 4 4 9 15 13 12 3 21 10 21 15 0 4 16 17 36 29 27 16 34 26 29 41
-4 13 2 28 18 44 14 14 25 31 24 38 0 7 1 42 3 78 2 45 5 54 7 30 3 -19 8 -39
13 -45z m-2319 -318 c-1 -12 -15 -9 -19 4 -3 6 1 10 8 8 6 -3 11 -8 11 -12z
m2204 -106 c-11 -3 -51 -21 -90 -40 -109 -52 -140 -63 -149 -54 -3 3 2 12 12
19 14 11 15 15 3 23 -16 11 1 23 22 15 8 -3 21 2 30 10 9 9 31 16 49 17 18 0
42 4 53 9 11 5 36 8 55 8 25 0 29 -2 15 -7z m185 -21 c0 -20 -356 -200 -396
-200 -8 0 -14 -4 -14 -9 0 -5 -12 -11 -27 -14 -16 -3 -38 -8 -50 -12 -15 -5
-23 -3 -23 4 0 6 9 11 20 11 11 0 20 5 20 10 0 6 9 10 20 10 11 0 20 5 20 10
0 6 8 10 18 10 9 0 40 11 67 25 28 13 56 25 63 25 6 0 12 5 12 10 0 6 8 10 18
10 9 0 37 11 61 25 23 14 48 25 55 26 6 0 36 17 66 38 52 36 70 41 70 21z
m-443 -91 c-14 -8 -22 -8 -30 0 -8 8 -3 11 19 11 25 -1 27 -2 11 -11z m-37
-19 c0 -5 -12 -10 -27 -10 -22 0 -25 2 -13 10 20 13 40 13 40 0z m-80 -30
c-20 -13 -33 -13 -25 0 3 6 14 10 23 10 15 0 15 -2 2 -10z m-43 -16 c-3 -3
-12 -4 -19 -1 -8 3 -5 6 6 6 11 1 17 -2 13 -5z m-47 -24 c0 -5 -10 -10 -22
-10 -19 0 -20 2 -8 10 19 13 30 13 30 0z m679 -48 c-1 -28 -4 -37 -6 -22 -3
13 -14 31 -25 39 -20 13 -20 15 -3 27 27 20 35 8 34 -44z m-749 28 c0 -5 -8
-10 -17 -10 -15 0 -16 2 -3 10 19 12 20 12 20 0z m-133 -46 c-3 -3 -12 -4 -19
-1 -8 3 -5 6 6 6 11 1 17 -2 13 -5z m-70 -30 c-3 -3 -12 -4 -19 -1 -8 3 -5 6
6 6 11 1 17 -2 13 -5z m-214 -71 c-7 -2 -19 -2 -25 0 -7 3 -2 5 12 5 14 0 19
-2 13 -5z m-386 -89 c-3 -3 -12 -4 -19 -1 -8 3 -5 6 6 6 11 1 17 -2 13 -5z
m-1117 -75 c0 -5 -4 -9 -10 -9 -5 0 -10 7 -10 16 0 8 5 12 10 9 6 -3 10 -10
10 -16z m2681 -526 c0 -76 -1 -150 -1 -165 0 -37 -15 -36 -28 2 -7 20 -7 41
-1 66 8 25 7 51 -1 85 -7 27 -10 56 -6 64 3 8 1 17 -4 20 -5 3 0 21 12 41 11
19 23 33 25 30 3 -3 5 -67 4 -143z m-131 -17 c0 -3 -4 -8 -10 -11 -5 -3 -10
-1 -10 4 0 6 5 11 10 11 6 0 10 -2 10 -4z m-50 -55 c0 -6 -4 -13 -10 -16 -5
-3 -10 1 -10 9 0 9 5 16 10 16 6 0 10 -4 10 -9z m-1880 -11 c0 -5 -4 -10 -10
-10 -5 0 -10 5 -10 10 0 6 5 10 10 10 6 0 10 -4 10 -10z m1810 -65 c-24 -25
-48 -45 -53 -45 -5 0 -18 -10 -28 -22 -11 -12 -19 -15 -19 -8 0 11 18 29 105
103 47 40 44 21 -5 -28z m-1743 -142 c-2 -16 -4 -3 -4 27 0 30 2 43 4 28 2
-16 2 -40 0 -55z m1613 36 c-12 -21 -49 -40 -64 -31 -5 2 9 15 30 28 47 29 47
29 34 3z m-70 -48 c0 -5 -11 -12 -25 -15 -14 -4 -25 -12 -25 -19 0 -15 -89
-57 -96 -46 -2 5 9 15 25 24 17 8 47 26 67 40 39 26 54 31 54 16z m-157 -98
c-7 -2 -19 -2 -25 0 -7 3 -2 5 12 5 14 0 19 -2 13 -5z m-1353 -29 c0 -14 -4
-23 -10 -19 -5 3 -10 15 -10 26 0 10 5 19 10 19 6 0 10 -12 10 -26z m-371 -26
c28 -6 51 -14 51 -18 0 -3 9 -6 21 -7 43 -4 107 -65 142 -138 45 -92 62 -144
50 -156 -9 -9 -26 26 -53 106 -7 22 -16 42 -19 45 -3 3 -15 22 -25 42 -10 21
-27 40 -36 43 -10 3 -28 14 -40 25 -25 22 -80 40 -122 40 -16 0 -28 5 -28 10
0 12 -77 13 -84 1 -3 -4 -24 -11 -46 -15 -41 -6 -48 -9 -107 -40 -17 -9 -36
-16 -42 -16 -19 0 -12 22 9 27 11 3 20 9 20 14 0 5 10 9 23 9 13 0 28 5 33 10
27 27 172 37 253 18z m393 -108 c4 -61 -5 -97 -15 -59 -10 36 -8 109 2 109 5
0 11 -23 13 -50z"/>
<path d="M12127 7182 c-18 -19 -23 -42 -9 -41 4 0 17 13 30 30 17 21 20 29 9
29 -8 0 -21 -8 -30 -18z"/>
<path d="M12199 7148 c-24 -29 -67 -77 -95 -108 -28 -30 -66 -73 -85 -95 -19
-22 -40 -46 -46 -53 -22 -23 -14 -36 9 -16 48 43 308 309 308 316 0 5 -10 8
-23 8 -16 0 -38 -17 -68 -52z"/>
<path d="M12778 5653 c-1 -5 -28 -30 -58 -57 -97 -88 -222 -208 -218 -211 4
-4 56 20 90 42 45 30 162 116 176 130 7 7 18 13 23 13 5 0 9 20 9 45 0 39 -12
60 -22 38z"/>
<path d="M12707 5467 c-125 -119 -115 -125 30 -18 50 37 63 51 63 74 0 15 -2
27 -3 27 -2 0 -43 -37 -90 -83z"/>
<path d="M12761 5399 c-18 -16 -31 -32 -28 -35 10 -11 67 30 67 48 0 23 0 23
-39 -13z"/>
<path d="M3305 5400 c-16 -4 -43 -15 -60 -24 -16 -9 -34 -16 -40 -16 -13 -1
-48 -77 -41 -89 4 -5 2 -12 -4 -16 -5 -3 -10 -23 -10 -44 0 -38 -19 -91 -32
-91 -5 0 -8 -13 -8 -30 0 -16 4 -30 9 -30 8 0 22 -56 38 -148 4 -28 2 -34 -16
-39 -11 -3 -21 -9 -21 -14 0 -5 -5 -9 -11 -9 -12 0 -49 -38 -49 -50 0 -4 -9
-10 -20 -13 -11 -3 -20 -9 -20 -14 0 -11 44 -33 64 -33 8 0 19 -13 26 -29 12
-30 31 -34 52 -13 7 7 20 12 31 12 10 0 16 4 12 9 -3 5 4 12 15 16 11 3 20 11
20 16 0 5 8 9 19 9 10 0 24 7 31 15 12 15 39 21 125 29 52 5 125 22 160 36 11
4 27 10 35 13 9 2 21 16 29 30 12 22 11 32 -3 74 -9 26 -19 55 -21 63 -23 79
-44 135 -54 138 -6 2 -11 15 -11 29 0 14 -9 36 -20 50 -12 15 -18 34 -15 44 4
10 -1 21 -10 27 -9 4 -18 17 -19 27 -2 12 -15 22 -37 27 -51 13 -89 29 -89 39
0 10 -13 10 -55 -1z"/>
<path d="M12758 5208 c-18 -24 -39 -50 -47 -58 -10 -11 -11 -15 -1 -18 7 -3
15 0 19 5 3 5 21 18 39 28 26 16 32 26 32 52 0 18 -2 33 -4 33 -2 0 -19 -19
-38 -42z"/>
<path d="M3012 4533 c-18 -24 -23 -26 -31 -13 -6 8 -11 13 -12 10 0 -3 -2 -14
-5 -25 -2 -11 -6 -34 -7 -52 -3 -26 -1 -30 10 -21 7 6 13 15 13 20 0 6 16 32
36 59 37 51 34 70 -4 22z"/>
<path d="M1822 4293 c-33 -6 -46 -38 -32 -74 12 -27 10 -31 -59 -105 -39 -43
-79 -95 -90 -117 -32 -64 -7 -87 49 -47 16 12 55 32 87 47 56 25 73 38 73 57
0 9 -31 4 -62 -9 -35 -14 -18 20 27 58 87 73 119 139 84 172 -18 16 -47 23
-77 18z"/>
<path d="M12531 3831 c-40 -37 -52 -54 -49 -72 5 -35 41 -36 84 -4 51 39 76
82 61 106 -18 30 -40 23 -96 -30z"/>
<path d="M1703 3724 c-12 -32 44 -122 98 -157 39 -26 41 -10 4 29 -19 19 -45
59 -60 89 -27 59 -32 64 -42 39z"/>
<path d="M1786 3238 c-19 -30 -33 -138 -17 -138 24 0 64 141 43 154 -6 4 -18
-4 -26 -16z"/>
<path d="M1700 2833 c-7 -27 -14 -70 -16 -98 l-4 -50 17 35 c16 36 30 83 40
133 4 20 1 27 -10 27 -10 0 -20 -17 -27 -47z"/>
<path d="M11070 2681 c-5 -11 -10 -24 -10 -30 0 -17 17 -13 24 7 3 9 9 23 12
30 9 20 -14 14 -26 -7z"/>
<path d="M11008 2633 c6 -2 18 -2 25 0 6 3 1 5 -13 5 -14 0 -19 -2 -12 -5z"/>
<path d="M10547 2353 c-4 -3 -7 -24 -7 -46 0 -49 6 -45 18 11 9 39 5 52 -11
35z"/>
<path d="M11520 2070 c0 -5 5 -10 10 -10 6 0 10 5 10 10 0 6 -4 10 -10 10 -5
0 -10 -4 -10 -10z"/>
<path d="M1107 1203 c-4 -3 -7 -15 -7 -25 0 -10 -9 -27 -20 -38 -11 -11 -20
-31 -20 -44 0 -14 -7 -26 -17 -28 -19 -5 -105 -159 -101 -180 2 -7 7 -16 12
-20 6 -4 5 -12 -2 -21 -10 -12 -9 -16 4 -21 16 -6 16 -8 -1 -20 -10 -7 -27
-11 -37 -8 -23 6 -23 -9 1 -37 l19 -22 10 31 c16 45 34 38 30 -12 -2 -35 -6
-42 -20 -40 -14 2 -18 -4 -18 -27 0 -16 6 -32 13 -34 9 -4 8 -8 -3 -17 -11 -9
-12 -13 -2 -17 6 -2 12 -16 12 -29 0 -13 -6 -24 -12 -24 -9 0 -8 -4 2 -10 13
-8 13 -10 -1 -10 -12 0 -18 -20 -27 -92 -6 -51 -16 -94 -22 -96 -13 -5 -13
-122 0 -122 6 0 10 -47 10 -120 l0 -120 256 0 255 0 -6 43 c-3 23 -7 79 -8
124 l-2 83 -33 0 c-19 0 -46 7 -61 16 -30 18 -71 87 -71 119 0 23 28 60 51 68
11 4 15 14 11 36 -2 19 0 31 7 31 6 0 11 9 11 19 0 22 -30 37 -40 21 -7 -12
-59 6 -72 25 -11 15 -10 55 2 55 18 0 10 29 -10 35 -17 5 -20 15 -20 66 0 33
-4 59 -10 59 -5 0 -10 18 -10 40 0 22 -4 40 -10 40 -6 0 -10 34 -10 83 0 71
-3 85 -20 97 -25 18 -28 80 -5 80 9 0 15 9 15 23 0 26 -14 50 -23 40z"/>
<path d="M830 630 c0 -5 7 -10 15 -10 8 0 15 5 15 10 0 6 -7 10 -15 10 -8 0
-15 -4 -15 -10z"/>
<path d="M799 593 c-6 -20 -12 -45 -13 -55 -1 -11 -7 -22 -14 -27 -8 -5 -15
-26 -16 -47 -1 -22 -6 -45 -10 -53 -6 -9 -3 -12 10 -9 15 3 19 12 18 41 -1 20
3 37 7 37 5 0 9 7 9 15 0 8 9 32 20 52 22 41 25 68 11 78 -5 3 -15 -12 -22
-32z"/>
<path d="M1298 426 c-76 -68 -32 -136 86 -136 l56 0 2 -77 c0 -43 1 -86 0 -96
-1 -9 3 -17 8 -17 6 0 10 -11 10 -24 0 -14 4 -36 10 -50 8 -22 16 -26 50 -26
41 0 41 0 35 32 -4 18 -11 73 -15 123 -5 50 -12 106 -15 125 -12 62 -75 111
-132 103 -36 -6 -41 1 -18 23 8 9 15 24 15 35 0 32 -49 24 -92 -15z"/>
<path d="M670 251 c0 -11 -3 -26 -6 -35 -9 -24 23 -20 36 4 7 14 7 20 0 20 -5
0 -10 7 -10 15 0 8 -4 15 -10 15 -5 0 -10 -9 -10 -19z"/>
<path d="M620 130 c0 -32 23 -42 34 -14 11 29 6 44 -14 44 -16 0 -20 -7 -20
-30z"/>
<path d="M597 74 c-10 -11 -9 -74 2 -74 12 0 21 52 12 68 -4 7 -10 9 -14 6z"/>
<path d="M5417 63 c-4 -3 -7 -13 -7 -22 1 -13 3 -13 11 2 11 19 8 33 -4 20z"/>
</g>
</svg>
